<svg width="40" height="40" viewBox="0 0 198 199" fill="none" xmlns="http://www.w3.org/2000/svg">
<path d="M99.1236 0.78894H98.6738C44.2572 0.78894 0.143799 44.9153 0.143799 99.3479V99.7978C0.143799 154.23 44.2572 198.357 98.6738 198.357H99.1236C153.54 198.357 197.654 154.23 197.654 99.7978V99.3479C197.654 44.9153 153.54 0.78894 99.1236 0.78894Z" fill="black"/>
<path d="M148.973 79.2541V97.9082C145.714 97.5898 141.479 96.8492 136.795 95.1326C130.678 92.8899 126.124 89.8236 123.142 87.4494V125.152L123.066 125.035C123.114 125.782 123.142 126.544 123.142 127.312C123.142 146.035 107.912 161.277 89.1868 161.277C70.4621 161.277 55.2318 146.035 55.2318 127.312C55.2318 108.588 70.4621 93.3399 89.1868 93.3399C91.0206 93.3399 92.8197 93.4852 94.5773 93.769V112.153C92.8889 111.551 91.0759 111.226 89.1868 111.226C80.3227 111.226 73.1054 118.438 73.1054 127.312C73.1054 136.186 80.3227 143.398 89.1868 143.398C98.051 143.398 105.268 136.179 105.268 127.312C105.268 126.98 105.261 126.647 105.241 126.315V53.0483H123.875C123.945 54.6264 124.007 56.2184 124.076 57.7966C124.201 60.9045 125.308 63.8878 127.238 66.3311C129.501 69.2037 132.843 72.54 137.535 75.2048C141.929 77.6967 146.053 78.7626 148.973 79.2679V79.2541Z" fill="#FF004F"/>
<path d="M142.566 64.1092V82.7634C139.306 82.445 135.072 81.7043 130.387 79.9877C124.27 77.7451 119.717 74.6788 116.734 72.3046V110.007L116.658 109.89C116.707 110.637 116.734 111.399 116.734 112.167C116.734 130.89 101.504 146.132 82.7792 146.132C64.0544 146.132 48.8241 130.89 48.8241 112.167C48.8241 93.4436 64.0544 78.195 82.7792 78.195C84.6129 78.195 86.412 78.3404 88.1696 78.6242V97.0084C86.4812 96.4062 84.6683 96.0808 82.7792 96.0808C73.915 96.0808 66.6977 103.293 66.6977 112.167C66.6977 121.041 73.915 128.253 82.7792 128.253C91.6433 128.253 98.8606 121.034 98.8606 112.167C98.8606 111.835 98.8537 111.503 98.8329 111.17V37.8896H117.468C117.537 39.4677 117.599 41.0598 117.668 42.6379C117.793 45.7458 118.9 48.7291 120.831 51.1725C123.093 54.045 126.436 57.3813 131.127 60.0461C135.521 62.5311 139.645 63.6039 142.566 64.1092Z" fill="#00F7EF"/>
<path d="M146.641 72.2631V90.9173C143.382 90.5989 139.147 89.8582 134.463 88.1416C128.346 85.899 123.792 82.8326 120.81 80.4585V118.161L120.734 118.044C120.782 118.791 120.81 119.553 120.81 120.321C120.81 139.044 105.58 154.286 86.8549 154.286C68.1301 154.286 52.8998 139.044 52.8998 120.321C52.8998 101.598 68.1301 86.3489 86.8549 86.3489C88.6886 86.3489 90.4877 86.4942 92.2454 86.778V105.162C90.5569 104.56 88.7439 104.235 86.8549 104.235C77.9907 104.235 70.7734 111.447 70.7734 120.321C70.7734 129.195 77.9907 136.407 86.8549 136.407C95.719 136.407 102.936 129.188 102.936 120.321C102.936 119.989 102.929 119.656 102.909 119.324V46.0573H121.543C121.613 47.6355 121.675 49.2275 121.744 50.8056C121.869 53.9135 122.976 56.8968 124.906 59.3402C127.169 62.2127 130.511 65.549 135.203 68.2139C139.597 70.6988 143.721 71.7717 146.641 72.2769V72.2631Z" fill="white"/>
</svg>
